<svg id="Layer_1" xmlns="http://www.w3.org/2000/svg" xmlns:xlink="http://www.w3.org/1999/xlink" x="0px" y="0px" width="51.39px" height="40px" viewBox="0 0 51.39 72" enable-background="new 0 0 51.39 72" xml:space="preserve"><g><path fill="#ffffff" fill-rule="evenodd" clip-rule="evenodd" d="M0.013,46.877c0-0.342,0-0.581,0-0.821c0-12.828-0.025-25.657,0.016-38.485 c0.012-3.534,2.448-6.342,5.739-7.335C6.443,0.032,7.193,0.011,7.908,0.01c11.87-0.013,23.74-0.01,35.61-0.009 c3.661,0,6.507,2.298,7.604,5.674c0.19,0.586,0.244,1.24,0.245,1.863c0.014,13.855,0.011,27.711,0.002,41.566 c0,0.274-0.025,0.684-0.195,0.797c-0.465,0.31-0.994,0.575-1.535,0.701c-0.346,0.081-0.673-0.696-0.468-1.028 c0.179-0.291,0.349-0.592,0.564-0.854c0.693-0.842,0.723-1.885,0.326-2.716c-0.427-0.896-1.221-1.566-2.443-1.578 c-1.019-0.009-1.643,0.531-2.338,1.08c-0.27,0.213-0.474,0.622-0.979,0.265c-0.509-0.361-0.382-0.712-0.233-1.173 c0.194-0.599,0.4-1.22,0.43-1.839c0.064-1.357-1.047-2.371-2.411-2.512c-1.308-0.135-2.014,0.58-2.688,1.503 c-0.197,0.269-0.566,0.581-0.853,0.576c-0.528-0.008-0.824-0.357-0.692-0.978c0.108-0.509,0.112-1.039,0.17-1.56 c0.15-1.348-0.687-1.87-1.563-2.152c-1.686-0.544-2.781-0.079-3.532,1.491c-0.118,0.246-0.244,0.49-0.346,0.744 c-0.135,0.338-0.357,0.587-0.72,0.414c-0.269-0.127-0.615-0.365-0.671-0.611c-0.127-0.571-0.098-1.178-0.134-1.77 c-0.048-0.809-0.536-1.468-1.33-1.6c-0.714-0.119-1.451-0.146-2.177-0.127c-0.611,0.015-1.266,0.677-1.424,1.311 c-0.133,0.53-0.271,1.06-0.387,1.595c-0.087,0.398-0.254,0.651-0.717,0.674c-0.499,0.025-0.613-0.303-0.72-0.66 c-0.157-0.525-0.286-1.058-0.455-1.578c-0.25-0.772-0.832-1.205-1.628-1.213c-0.524-0.005-1.051,0-1.573,0.046 c-1.015,0.089-1.652,0.779-1.695,1.8c-0.022,0.524-0.07,1.051-0.041,1.574c0.03,0.537-0.269,0.693-0.705,0.83 c-0.491,0.154-0.582-0.201-0.746-0.486c-0.136-0.237-0.257-0.482-0.389-0.723c-0.937-1.697-3.165-2.031-4.525-0.634 c-0.271,0.278-0.474,0.745-0.486,1.13c-0.022,0.723,0.079,1.455,0.208,2.17c0.081,0.444-0.11,0.605-0.443,0.787 c-0.346,0.189-0.59,0.153-0.823-0.16c-0.176-0.238-0.404-0.438-0.572-0.681c-1.287-1.854-3.584-1.06-4.493,0.151 c-0.577,0.77-0.358,1.699-0.11,2.564c0.087,0.305,0.224,0.601,0.377,0.879c0.216,0.392,0.138,0.647-0.216,0.929 c-0.377,0.3-0.604,0.089-0.897-0.103C4.506,46,3.943,45.489,3.297,45.328c-0.927-0.231-1.86-0.045-2.514,0.818 C0.599,46.391,0.336,46.576,0.013,46.877z"></path><path fill="#ffffff" fill-rule="evenodd" clip-rule="evenodd" d="M0.746,67.748c-0.244-1.027-0.677-2.05-0.699-3.082 c-0.083-3.901-0.032-7.806-0.029-11.709c0-0.089,0.024-0.177,0.029-0.206c0.485-0.072,0.993-0.031,1.363-0.236 c0.373-0.206,0.615-0.654,0.907-1.003c0.376-0.45,0.353-0.918,0.029-1.383c-0.352-0.505-0.725-0.997-1.066-1.509 c-0.411-0.617-0.322-1.082,0.285-1.691c0.773-0.776,1.157-0.878,1.834-0.422c0.511,0.343,0.993,0.728,1.485,1.099 c0.486,0.368,0.964,0.357,1.44-0.017c0.162-0.127,0.321-0.256,0.482-0.383c0.855-0.677,0.919-0.932,0.489-1.921 c-0.2-0.46-0.406-0.919-0.587-1.387c-0.26-0.672-0.062-1.137,0.653-1.594c0.878-0.562,1.347-0.567,1.887,0.014 c0.419,0.451,0.817,0.923,1.215,1.393c0.397,0.469,0.85,0.542,1.405,0.286c1.635-0.755,1.638-0.747,1.334-2.511 c-0.031-0.181-0.049-0.362-0.083-0.542c-0.246-1.282,0.094-1.781,1.404-2.064c0.586-0.127,1.032,0.051,1.321,0.586 c0.292,0.542,0.583,1.086,0.879,1.625c0.29,0.527,0.725,0.733,1.317,0.582c0.177-0.045,0.354-0.088,0.532-0.131 c1.118-0.266,1.271-0.449,1.307-1.568c0.015-0.479,0.018-0.959,0.052-1.436c0.061-0.848,0.397-1.129,1.474-1.271 c0.837-0.109,1.267,0.143,1.518,0.921c0.175,0.542,0.335,1.091,0.475,1.643c0.161,0.637,0.581,0.894,1.202,0.894 c0.273,0,0.547-0.016,0.821-0.013c0.697,0.008,1.106-0.321,1.249-1.011c0.111-0.535,0.261-1.063,0.386-1.594 c0.159-0.678,0.569-0.992,1.276-0.973c1.398,0.037,1.664,0.271,1.789,1.66c0.017,0.182,0.027,0.363,0.037,0.546 c0.089,1.702,0.092,1.685,1.74,2.03c0.712,0.15,1.199-0.044,1.511-0.705c0.233-0.495,0.485-0.981,0.735-1.469 c0.331-0.646,0.81-0.872,1.452-0.691c1.169,0.328,1.504,0.658,1.431,1.502c-0.056,0.635-0.165,1.266-0.266,1.896 c-0.098,0.615,0.169,1.008,0.717,1.245c0.252,0.108,0.509,0.204,0.754,0.324c0.61,0.3,1.103,0.141,1.514-0.366 c0.388-0.478,0.76-0.97,1.168-1.43c0.502-0.566,0.916-0.553,1.892,0.01c0.679,0.391,0.882,0.8,0.669,1.452 c-0.199,0.606-0.429,1.204-0.661,1.799c-0.22,0.566-0.107,1.024,0.392,1.383c0.24,0.173,0.484,0.342,0.715,0.528 c0.48,0.39,0.963,0.37,1.438,0.009c0.508-0.386,0.992-0.805,1.508-1.181c0.61-0.445,1.019-0.379,1.698,0.221 c0.757,0.67,0.895,1.091,0.508,1.764c-0.306,0.533-0.654,1.042-0.998,1.553c-0.37,0.552-0.353,1.062,0.113,1.549 c0.173,0.182,0.334,0.375,0.497,0.565c0.449,0.526,0.968,0.636,1.584,0.295c0.312-0.173,0.642-0.313,1.065-0.516 c0.019,0.355,0.042,0.594,0.043,0.833c0.002,4.154,0.039,8.31-0.021,12.463c-0.02,1.313-0.29,2.625-1.221,3.849 c-0.069-0.292-0.112-0.489-0.162-0.685c-0.413-1.633-0.749-3.291-1.264-4.892c-0.6-1.866-2.31-2.403-3.927-1.271 c-1.905,1.334-3.757,2.745-5.632,4.122c-0.653,0.479-0.658,1.105-0.521,1.837c0.24,1.271,0.399,2.56,0.585,3.842 c0.075,0.52-0.13,0.735-0.686,0.718c-1.118-0.037-2.237-0.025-3.355-0.005c-0.459,0.01-0.628-0.122-0.638-0.618 c-0.09-4.393-2.698-7.715-6.907-8.839c-3.729-0.997-8.252,1.049-9.994,4.49c-0.692,1.368-1.117,2.794-1.089,4.332 c0.009,0.477-0.143,0.646-0.623,0.636c-1.141-0.024-2.283-0.025-3.423,0.001c-0.484,0.011-0.673-0.172-0.622-0.64 c0.013-0.113,0.001-0.229,0.004-0.343c0.05-1.932,0.05-1.934-1.688-2.701c-1.754-0.774-3.503-1.56-5.265-2.315 c-1.896-0.814-3.057-0.307-3.802,1.624c-0.023,0.06-0.077,0.106-0.116,0.159C0.923,67.718,0.834,67.733,0.746,67.748z  M20.627,57.447c-0.265-2.468-0.464-4.717-0.757-6.953c-0.274-2.091-1.76-2.92-3.706-2.11c-3.794,1.577-7.011,3.951-9.635,7.114 c-1.223,1.474-0.84,3.196,0.905,3.997c2.092,0.96,4.213,1.856,6.311,2.803c0.708,0.319,1.279,0.176,1.79-0.362 c1.188-1.254,2.542-2.281,4.108-3.02C20.363,58.576,20.749,58.054,20.627,57.447z M26.694,49.871 c0.216,2.038,0.465,4.352,0.707,6.666c0.076,0.726,0.467,1.165,1.172,1.334c1.749,0.421,3.361,1.142,4.853,2.15 c0.566,0.383,1.158,0.364,1.72-0.057c0.219-0.164,0.44-0.324,0.661-0.486c1.638-1.199,3.294-2.374,4.906-3.606 c1.579-1.206,1.583-2.94,0.046-4.142c-3.263-2.551-6.937-4.18-11.023-4.864C27.809,46.543,26.606,47.627,26.694,49.871z"></path><path fill="#ffffff" fill-rule="evenodd" clip-rule="evenodd" d="M25.514,71.912c-2.417,0-4.835-0.019-7.252,0.013 c-0.627,0.008-0.806-0.227-0.75-0.804c0.423-4.361,3.502-7.777,8.073-7.851c3.443-0.056,6.618,2.216,7.698,6.234 c0.152,0.567,0.199,1.164,0.281,1.75c0.07,0.5-0.15,0.672-0.661,0.667C30.44,71.899,27.976,71.912,25.514,71.912z"></path><path fill="#ffffff" fill-rule="evenodd" clip-rule="evenodd" d="M42.425,71.91c-0.594,0-1.19,0.036-1.778-0.022 c-0.176-0.018-0.443-0.286-0.468-0.466c-0.199-1.487-0.365-2.979-0.499-4.473c-0.02-0.216,0.127-0.536,0.303-0.667 c1.787-1.34,3.584-2.669,5.406-3.962c1.071-0.761,1.885-0.539,2.267,0.71c0.552,1.803,0.941,3.654,1.433,5.477 c0.23,0.854-0.159,1.434-0.799,1.846c-1.03,0.663-2.053,1.355-3.374,1.374c-0.828,0.011-1.653,0.178-2.48,0.274 C42.432,71.97,42.429,71.94,42.425,71.91z"></path><path fill="#ffffff" fill-rule="evenodd" clip-rule="evenodd" d="M8.662,71.912c-1.526,0.034-3.189-0.061-4.648-1.012 c-0.653-0.426-1.255-0.94-1.834-1.465c-0.354-0.321-0.185-1.593,0.223-2.179c0.408-0.585,1.021-0.807,1.666-0.527 c2.112,0.913,4.224,1.828,6.308,2.803c0.262,0.122,0.502,0.598,0.505,0.912c0.019,1.76,0.271,1.429-1.382,1.467 C9.271,71.917,9.043,71.912,8.662,71.912z"></path><path fill="#ffffff" fill-rule="evenodd" clip-rule="evenodd" d="M0.188,49.025c0.381,0.548,0.83,1.064,1.102,1.661 c0.081,0.179-0.331,0.581-0.517,0.882c-0.251-0.179-0.687-0.33-0.719-0.542c-0.096-0.634-0.035-1.292-0.035-1.94 C0.076,49.066,0.132,49.045,0.188,49.025z"></path><path fill-rule="evenodd" clip-rule="evenodd" fill="none" d="M20.627,57.447c0.122,0.607-0.264,1.129-0.985,1.469 c-1.565,0.738-2.92,1.766-4.108,3.02c-0.51,0.538-1.082,0.682-1.79,0.362c-2.098-0.946-4.219-1.843-6.311-2.803 c-1.745-0.801-2.127-2.523-0.905-3.997c2.624-3.163,5.84-5.537,9.635-7.114c1.946-0.81,3.432,0.02,3.706,2.11 C20.163,52.73,20.362,54.979,20.627,57.447z M19.61,57.361c-0.258-2.347-0.485-4.479-0.738-6.606 c-0.034-0.284-0.172-0.567-0.308-0.827c-0.417-0.799-0.926-0.985-1.742-0.624c-0.792,0.351-1.588,0.696-2.349,1.107 c-2.798,1.513-5.258,3.446-7.223,5.968c-0.565,0.726-0.413,1.454,0.372,1.958c0.191,0.123,0.396,0.227,0.604,0.319 c1.917,0.852,3.84,1.689,5.75,2.558c0.407,0.185,0.668,0.104,0.956-0.203c1.199-1.274,2.592-2.287,4.156-3.077 C19.342,57.806,19.498,57.49,19.61,57.361z"></path><path fill-rule="evenodd" clip-rule="evenodd" fill="none" d="M26.694,49.871c-0.088-2.243,1.115-3.327,3.041-3.005 c4.087,0.685,7.761,2.313,11.023,4.864c1.537,1.201,1.533,2.936-0.046,4.142c-1.612,1.232-3.269,2.407-4.906,3.606 c-0.221,0.162-0.442,0.322-0.661,0.486c-0.562,0.421-1.153,0.439-1.72,0.057c-1.491-1.009-3.104-1.729-4.853-2.15 c-0.705-0.169-1.096-0.608-1.172-1.334C27.159,54.222,26.91,51.909,26.694,49.871z M27.619,50.122 c0.037,0.009,0.074,0.018,0.11,0.026c0.214,1.95,0.401,3.903,0.666,5.846c0.045,0.329,0.368,0.812,0.651,0.886 c1.74,0.455,3.363,1.139,4.869,2.122c0.158,0.104,0.506,0.116,0.65,0.012c1.886-1.36,3.77-2.726,5.613-4.142 c0.87-0.669,0.848-1.482,0-2.179c-0.597-0.49-1.232-0.94-1.883-1.358c-2.719-1.745-5.668-2.917-8.852-3.483 c-0.688-0.123-1.248,0.128-1.505,0.776C27.755,49.095,27.721,49.622,27.619,50.122z"></path><path fill="#ffffff" fill-rule="evenodd" clip-rule="evenodd" d="M19.61,57.361c-0.112,0.129-0.268,0.445-0.52,0.572 c-1.564,0.79-2.958,1.803-4.156,3.077c-0.288,0.307-0.549,0.388-0.956,0.203c-1.91-0.868-3.833-1.706-5.75-2.558 c-0.208-0.093-0.414-0.196-0.604-0.319c-0.785-0.504-0.937-1.232-0.372-1.958c1.965-2.521,4.424-4.455,7.223-5.968 c0.76-0.411,1.557-0.757,2.349-1.107c0.816-0.361,1.325-0.175,1.742,0.624c0.135,0.26,0.274,0.543,0.308,0.827 C19.125,52.882,19.352,55.014,19.61,57.361z"></path><path fill="#ffffff" fill-rule="evenodd" clip-rule="evenodd" d="M27.619,50.122c0.103-0.5,0.137-1.026,0.321-1.494 c0.257-0.648,0.816-0.899,1.505-0.776c3.184,0.566,6.133,1.738,8.852,3.483c0.65,0.418,1.286,0.868,1.883,1.358 c0.848,0.696,0.87,1.51,0,2.179c-1.844,1.416-3.728,2.781-5.613,4.142c-0.145,0.104-0.492,0.092-0.65-0.012 c-1.506-0.983-3.129-1.667-4.869-2.122c-0.283-0.074-0.606-0.557-0.651-0.886c-0.265-1.942-0.452-3.896-0.666-5.846 C27.693,50.139,27.656,50.13,27.619,50.122z"></path></g></svg>